<svg width="512" height="512" viewBox="0 0 512 512" xmlns="http://www.w3.org/2000/svg">
  <!-- Background circle -->
  <circle cx="256" cy="256" r="240" fill="#3b82f6" stroke="#1e40af" stroke-width="4"/>
  
  <!-- Checklist icon -->
  <rect x="160" y="180" width="192" height="200" rx="16" fill="#ffffff" stroke="#e5e7eb" stroke-width="2"/>
  
  <!-- Check marks -->
  <g fill="#10b981" stroke="#059669" stroke-width="3">
    <polyline points="180,220 195,235 220,210" fill="none"/>
    <polyline points="180,260 195,275 220,250" fill="none"/>
    <polyline points="180,300 195,315 220,290" fill="none"/>
  </g>
  
  <!-- Task lines -->
  <g fill="#6b7280">
    <rect x="235" y="215" width="100" height="4" rx="2"/>
    <rect x="235" y="255" width="80" height="4" rx="2"/>
    <rect x="235" y="295" width="90" height="4" rx="2"/>
  </g>
  
  <!-- Star (reward icon) -->
  <g transform="translate(300, 140)">
    <path d="M12,2 L15,8 L22,9 L17,14 L18,21 L12,18 L6,21 L7,14 L2,9 L9,8 Z" fill="#fbbf24" stroke="#f59e0b" stroke-width="1"/>
  </g>
  
  <!-- Trophy (achievement icon) -->
  <g transform="translate(200, 340)">
    <path d="M8,2 C8,2 8,6 12,6 S16,2 16,2 L20,6 L20,10 C20,14 16,18 12,18 S4,14 4,10 L4,6 Z" fill="#f59e0b" stroke="#d97706" stroke-width="1"/>
    <rect x="10" y="18" width="4" height="6" fill="#8b5cf6"/>
    <rect x="8" y="24" width="8" height="2" fill="#8b5cf6"/>
  </g>
</svg>